
<?xml version="1.0" standalone="no"?>
<!DOCTYPE svg PUBLIC "-//W3C//DTD SVG 20010904//EN"
 "http://www.w3.org/TR/2001/REC-SVG-20010904/DTD/svg10.dtd">
<svg version="1.0" xmlns="http://www.w3.org/2000/svg"
 width="480.000000pt" height="150.000000pt" viewBox="0 0 480.000000 150.000000"
 preserveAspectRatio="xMidYMid meet">
<metadata>
Created by potrace 1.13, written by Peter Selinger 2001-2015
</metadata>
<g transform="translate(0.000000,150.000000) scale(0.100000,-0.100000)"
fill="#000000" stroke="none">
<path d="M674 1257 c-112 -37 -173 -76 -265 -167 -65 -65 -94 -103 -122 -160
-101 -207 -87 -394 40 -527 25 -26 38 -37 29 -23 -72 110 -101 222 -86 331 41
286 283 510 571 527 90 5 162 -10 244 -49 l40 -20 -25 21 c-14 12 -54 36 -90
53 -58 29 -76 32 -165 34 -82 3 -112 -1 -171 -20z"/>
<path d="M865 1136 c-43 -10 -51 -16 -59 -44 -5 -19 -5 -59 1 -103 7 -56 7
-72 -4 -76 -8 -3 -13 -22 -13 -47 0 -58 -29 -98 -91 -130 -57 -28 -136 -36
-144 -13 -3 6 6 80 19 162 l24 150 -22 17 c-14 12 -22 13 -23 5 -20 -119 -57
-299 -60 -290 -5 13 -71 49 -77 42 -6 -5 -74 -317 -78 -353 -4 -40 32 -64 102
-68 l55 -2 11 59 c7 33 15 81 18 107 l7 47 68 -6 c75 -6 150 12 196 49 l26 21
61 -32 c51 -26 72 -31 129 -31 l69 0 -7 48 c-7 49 -20 66 -64 83 l-26 10 -6
186 c-5 154 -9 189 -23 204 -19 21 -20 21 -89 5z"/>
<path d="M3136 1085 c-26 -30 -44 -60 -41 -65 3 -6 17 3 31 19 24 29 26 29 59
15 45 -18 151 -18 205 1 23 8 47 15 53 15 6 0 -23 -35 -64 -77 l-74 -78 -75
-5 c-61 -4 -75 -8 -78 -22 -3 -16 5 -18 63 -18 59 0 66 -2 55 -15 -9 -10 -32
-15 -74 -15 -56 0 -86 -11 -86 -32 0 -4 27 -8 60 -10 l61 -3 -61 -90 c-34 -49
-73 -102 -87 -117 -34 -35 -14 -46 42 -22 66 27 179 29 255 5 l65 -21 47 52
c47 53 56 91 11 45 -25 -24 -27 -24 -62 -10 -45 19 -184 13 -250 -11 l-44 -16
89 94 89 94 71 1 c52 1 73 5 77 15 9 22 -2 26 -64 26 -47 0 -57 3 -53 15 4 10
26 15 77 17 59 2 72 6 75 21 3 14 -5 17 -52 17 -31 0 -56 3 -56 8 0 4 31 55
69 112 38 58 65 106 61 108 -4 2 -35 -6 -69 -18 -75 -25 -140 -25 -211 0 -30
11 -58 19 -61 20 -3 0 -27 -25 -53 -55z"/>
<path d="M1372 1038 c28 -85 30 -258 4 -342 -78 -258 -318 -491 -574 -557
-138 -35 -334 -16 -431 43 -27 16 -32 18 -22 5 21 -26 110 -73 176 -93 43 -13
92 -18 175 -18 98 0 126 4 195 28 203 70 415 267 493 459 50 125 62 241 37
360 -13 63 -57 177 -68 177 -3 0 4 -28 15 -62z"/>
<path d="M1595 1043 c-131 -107 -140 -230 -21 -304 l29 -18 88 60 89 60 0 -39
c0 -45 -23 -129 -44 -157 -14 -19 -15 -19 -86 12 l-72 32 -19 -22 c-44 -50
-43 -51 37 -87 l75 -33 37 30 c163 131 198 322 83 446 -29 33 -91 67 -119 67
-10 0 -44 -21 -77 -47z m68 -49 c55 -28 107 -88 107 -122 0 -6 -22 -24 -49
-42 -50 -31 -50 -31 -85 -15 -66 31 -92 104 -61 165 18 34 41 38 88 14z"/>
<path d="M1938 936 c-40 -35 -49 -52 -21 -42 27 11 33 -13 33 -138 0 -94 -3
-123 -16 -137 -14 -16 -12 -19 20 -44 l36 -27 35 23 c39 27 41 31 20 49 -12
10 -15 37 -15 120 l0 108 31 27 c30 24 33 25 50 9 17 -15 19 -32 19 -132 0
-91 -3 -119 -16 -133 -14 -16 -12 -19 20 -44 l36 -27 35 23 c39 27 41 31 20
49 -12 10 -15 36 -15 114 l0 102 33 32 c32 31 34 32 50 14 14 -15 17 -41 17
-149 0 -117 2 -133 21 -157 11 -14 24 -26 28 -26 11 0 91 63 91 72 0 5 -11 6
-25 2 l-25 -6 0 135 c0 121 2 137 21 161 16 20 17 26 6 26 -8 0 -20 -7 -27
-15 -12 -14 -17 -12 -44 14 l-32 31 -51 -45 c-56 -49 -63 -52 -63 -31 0 8 -14
28 -31 46 l-31 31 -55 -47 c-29 -25 -55 -45 -56 -43 -2 2 -7 17 -12 33 -6 16
-19 35 -30 42 -18 11 -24 9 -57 -20z"/>
<path d="M2519 930 c-40 -37 -42 -40 -19 -38 l25 3 3 -134 c2 -93 -1 -138 -9
-148 -10 -12 -7 -19 17 -38 36 -30 42 -30 79 -1 26 22 29 27 18 45 -8 13 -13
59 -13 126 0 103 1 107 27 130 21 17 32 21 45 14 16 -9 18 -26 18 -139 0 -75
-4 -131 -10 -135 -17 -10 -12 -19 25 -44 l35 -23 36 27 c32 25 34 28 20 44
-12 14 -16 41 -16 122 0 102 1 106 28 132 26 25 29 26 50 11 21 -14 22 -22 22
-153 0 -133 1 -138 24 -161 l25 -23 40 33 c46 36 52 51 19 47 -23 -2 -23 0
-26 113 -3 127 0 151 24 175 23 23 8 32 -16 10 -20 -18 -21 -18 -53 13 l-33
32 -44 -45 c-24 -25 -48 -45 -52 -45 -5 0 -12 10 -17 23 -5 12 -20 32 -33 44
l-24 22 -54 -44 -54 -44 -12 27 c-6 15 -20 35 -31 45 -19 17 -21 16 -64 -23z"/>
<path d="M3695 953 c-11 -8 -39 -24 -62 -35 l-43 -19 0 -127 c0 -81 -4 -132
-11 -139 -15 -15 -2 -33 24 -33 12 0 46 -11 75 -25 l53 -24 64 35 65 36 0 143
0 143 -37 13 c-21 6 -54 20 -73 29 -32 16 -37 17 -55 3z m40 -77 l35 -15 0
-120 c0 -67 -2 -121 -4 -121 -2 0 -25 9 -50 20 l-46 19 0 116 c0 128 0 128 65
101z"/>
<path d="M3959 930 c-40 -37 -42 -40 -19 -38 l25 3 3 -125 c2 -81 -1 -133 -9
-147 -10 -19 -8 -25 17 -47 36 -32 42 -32 78 0 25 22 28 29 18 45 -7 11 -12
60 -11 126 0 108 0 108 30 131 49 39 57 22 61 -138 3 -136 4 -140 30 -166 l26
-27 41 32 c46 37 52 52 19 48 -23 -2 -23 0 -26 128 -2 117 -1 132 18 157 15
21 17 28 7 28 -8 0 -20 -7 -27 -15 -10 -12 -16 -10 -37 15 l-25 30 -56 -44
-56 -45 -12 27 c-6 15 -20 35 -31 45 -19 17 -21 16 -64 -23z"/>
<path d="M4433 933 l-73 -35 0 -137 c0 -91 -4 -141 -12 -149 -8 -8 -5 -14 16
-22 15 -5 31 -10 36 -10 5 0 25 -8 44 -17 l36 -17 64 45 c64 44 83 77 22 40
-31 -20 -35 -20 -74 -4 -39 15 -42 19 -42 53 0 34 4 39 85 95 47 32 85 61 85
64 -1 3 -26 34 -58 68 l-57 61 -72 -35z"/>
<path d="M1927 374 c-4 -4 -7 -38 -7 -75 0 -71 6 -79 55 -79 36 0 46 22 43 92
l-3 63 -40 3 c-23 2 -44 0 -48 -4z"/>
<path d="M2037 313 c2 -38 6 -74 8 -80 7 -23 33 -14 43 15 l10 27 11 -27 c24
-63 51 -17 51 90 0 47 -25 60 -36 18 -4 -17 -11 -23 -21 -19 -8 3 -19 0 -24
-8 -6 -10 -9 -4 -9 19 0 25 -4 32 -19 32 -17 0 -18 -6 -14 -67z"/>
<path d="M2522 303 l3 -78 36 -3 c50 -4 61 13 57 90 l-3 63 -48 3 -48 3 3 -78z"/>
<path d="M2712 303 l3 -78 33 -3 c51 -5 61 10 59 86 l-2 67 -48 3 -48 3 3 -78z"/>
<path d="M3602 303 c3 -65 6 -78 21 -81 13 -3 17 4 17 30 l1 33 14 -33 c10
-23 20 -32 32 -30 15 3 18 16 21 81 3 72 1 77 -18 77 -15 0 -20 -7 -21 -27
l-1 -28 -10 28 c-7 19 -17 27 -34 27 -25 0 -25 -1 -22 -77z"/>
<path d="M4278 325 c-1 -30 -2 -65 -2 -77 -1 -14 6 -24 17 -26 12 -3 17 3 18
20 l0 23 9 -22 c5 -13 14 -23 20 -23 6 0 15 10 20 23 l9 22 0 -22 c1 -14 7
-23 16 -23 12 0 15 16 15 80 0 73 -2 80 -20 80 -14 0 -22 -11 -31 -42 l-12
-43 -9 43 c-7 32 -14 42 -29 42 -16 0 -19 -8 -21 -55z"/>
</g>
</svg>
